<svg width="1920" height="1080" viewBox="0 0 1920 1080" fill="none" xmlns="http://www.w3.org/2000/svg">
<path d="M1546 1080C1554.88 1043.76 1563.88 1007.52 1567.72 965.4C1571.68 923.4 1570.6 875.52 1590.28 840.24C1610.08 804.84 1650.52 782.04 1687.6 759.6C1724.68 737.28 1758.28 715.32 1796.56 698.76C1834.72 682.32 1877.56 671.16 1920.4 660V1080H1546Z" fill="#2B2D42"/>
<path d="M404.4 0C406.92 46.2 409.56 92.4 390.36 126.84C371.16 161.28 330.24 183.84 306.72 222.84C283.32 261.84 277.44 317.28 246.84 339.84C216.24 362.28 160.92 351.96 115.68 356.04C70.44 360.12 35.16 378.72 0 397.2V0H404.4Z" fill="#2B2D42"/>
</svg>
