<svg width="178" height="184" viewBox="0 0 178 184" fill="none" xmlns="http://www.w3.org/2000/svg">
<path fill-rule="evenodd" clip-rule="evenodd" d="M166 49C166 55.6274 171.373 61 178 61L178 89C178 94.5229 173.523 99 168 99L10 99C4.47715 99 -4.13173e-06 94.5228 -3.89031e-06 89L-2.66639e-06 61C6.62741 61 12 55.6274 12 49C12 42.3726 6.62741 37 -1.61732e-06 37L-4.37114e-07 9.99999C-1.95703e-07 4.47714 4.47716 -7.58492e-06 10 -7.34351e-06L168 -4.37114e-07C173.523 -1.95702e-07 178 4.47715 178 10L178 37C171.373 37 166 42.3726 166 49Z" fill="url(#paint0_linear_27_32)"/>
<path d="M27.928 177V122.4H62.95V131.214H37.21V144.396H53.98V153.21H37.21V168.186H64.588V177H27.928ZM83.9485 177V131.292H68.1145V122.4H109.142V131.292H93.2305V177H83.9485ZM131.857 177.936C128.893 177.936 126.111 177.364 123.511 176.22C120.937 175.05 118.688 173.412 116.764 171.306C114.84 169.2 113.397 166.73 112.435 163.896L120.859 160.776C122.029 163.272 123.667 165.3 125.773 166.86C127.905 168.42 130.193 169.2 132.637 169.2C134.977 169.2 136.888 168.602 138.37 167.406C139.852 166.21 140.593 164.468 140.593 162.18C140.593 160.698 140.073 159.385 139.033 158.241C137.993 157.071 136.615 156.005 134.899 155.043C133.209 154.081 131.363 153.158 129.361 152.274C127.619 151.52 125.864 150.675 124.096 149.739C122.354 148.803 120.742 147.698 119.26 146.424C117.804 145.15 116.621 143.655 115.711 141.939C114.827 140.223 114.385 138.208 114.385 135.894C114.385 133.268 115.074 130.863 116.452 128.679C117.83 126.495 119.78 124.753 122.302 123.453C124.824 122.127 127.801 121.464 131.233 121.464C135.341 121.464 138.864 122.569 141.802 124.779C144.766 126.989 146.729 129.758 147.691 133.086L139.345 135.894C138.565 134.282 137.447 132.93 135.991 131.838C134.535 130.746 132.767 130.2 130.687 130.2C128.737 130.2 127.086 130.694 125.734 131.682C124.408 132.67 123.745 134.022 123.745 135.738C123.745 136.934 124.122 137.974 124.876 138.858C125.656 139.742 126.787 140.6 128.269 141.432C129.777 142.264 131.623 143.2 133.807 144.24C135.575 145.072 137.395 146.008 139.267 147.048C141.139 148.062 142.881 149.245 144.493 150.597C146.131 151.949 147.444 153.535 148.432 155.355C149.446 157.175 149.953 159.294 149.953 161.712C149.953 165.17 149.108 168.108 147.418 170.526C145.754 172.944 143.544 174.79 140.788 176.064C138.058 177.312 135.081 177.936 131.857 177.936Z" fill="#293241"/>
<path d="M45.5 96L45.5 3" stroke="#293241" stroke-width="6" stroke-linecap="square" stroke-dasharray="15 15"/>
<defs>
<linearGradient id="paint0_linear_27_32" x1="178" y1="0" x2="-6.31949e-06" y2="99" gradientUnits="userSpaceOnUse">
<stop stop-color="#EF233C"/>
<stop offset="1" stop-color="#D90429"/>
</linearGradient>
</defs>
</svg>
